<svg xmlns="http://www.w3.org/2000/svg" xmlns:xlink="http://www.w3.org/1999/xlink" aria-hidden="true" role="img" class="iconify iconify--ph" width="32" height="32" preserveAspectRatio="xMidYMid meet" viewBox="0 0 256 256"><path d="M128.018 228a11.995 11.995 0 0 1-5.864-1.53C117.82 224.043 16.018 166.18 16.018 92a64.028 64.028 0 0 1 112-42.378a64.028 64.028 0 0 1 112 42.378c0 74.18-101.803 132.043-106.137 134.47a11.995 11.995 0 0 1-5.863 1.53zm-48-176a40.046 40.046 0 0 0-40 40c0 51.222 67.445 97.186 88 110c20.554-12.814 88-58.778 88-110a40.009 40.009 0 0 0-76.928-15.408a12 12 0 0 1-22.145 0A39.923 39.923 0 0 0 80.018 52z" fill="black"></path></svg>